<?xml version="1.0" encoding="UTF-8"?>
<svg xmlns="http://www.w3.org/2000/svg"
     version="1.2" baseProfile="tiny"
     viewBox="0 0 500 500"
     width="500" height="500">
  <title>Kluke Servicos Contabeis</title>
  <rect width="500" height="500" fill="#ffffff"/>
  <g fill="#1a1a1a" transform="translate(50.0000,450.0000) scale(0.104167,-0.104167)">
    <path d="M343 2850 c-31 -12 -31 -68 0 -152 56 -154 184 -273 336 -313 89 -23
882 -22 905 1 14 13 16 48 16 229 0 210 0 214 -22 229 -20 14 -94 16 -618 15
-330 0 -605 -4 -617 -9z M1737 2802 c-16 -17 -17 -87 -17 -805 l0 -786 22 -15
c33 -23 373 -23 406 0 21 15 22 20 22 205 l0 189 78 88 c104 115 109 119 127
101 13 -14 229 -332 333 -491 32 -49 68 -91 82 -98 16 -7 105 -9 249 -8 278 4
271 -1 185 125 -70 102 -392 578 -474 703 -72 108 -83 128 -74 142 4 6 129
147 279 313 149 165 275 307 279 313 4 7 2 19 -4 27 -10 12 -53 15 -241 15
l-228 0 -98 -108 c-112 -123 -281 -314 -396 -447 -44 -49 -83 -90 -89 -90 -6
0 -9 109 -8 306 1 270 -1 309 -15 323 -14 14 -45 16 -209 16 -174 0 -195 -2
-209 -18z"/>
  </g>
  <g fill="#008791" transform="translate(50.0000,450.0000) scale(0.104167,-0.104167)">
    <path d="M332 2248 c-17 -17 -15 -64 8 -135 54 -173 208 -305 390 -333 100
-15 809 -13 840 3 l25 13 3 219 c2 198 1 221 -15 232 -24 18 -1233 19 -1251 1z"/>
  </g>
  <g fill="#00DAE7" transform="translate(50.0000,450.0000) scale(0.104167,-0.104167)">
    <path d="M346 1655 c-28 -14 -31 -54 -10 -123 51 -169 195 -304 364 -342 25
-5 221 -10 450 -10 351 0 409 2 428 16 22 15 22 19 22 228 0 172 -3 216 -14
225 -19 16 -1209 21 -1240 6z"/>
  </g>
</svg>